<svg width="128" height="48" viewBox="0 0 128 48" fill="none" xmlns="http://www.w3.org/2000/svg">
<rect x="1" y="1" width="126" height="46" rx="23" fill="#111F3C" stroke="#287ECF" stroke-width="2"/>
<g clip-path="url(#clip0_1_478)">
<path d="M29.7721 12C30.4098 12.1422 31.0569 12.2525 31.6832 12.4321C36.0201 13.6816 38.847 16.4799 39.9388 20.784C40.9397 24.7308 39.9539 28.2942 37.1554 31.3225C35.3124 33.3184 33.0134 34.5136 30.3284 34.8784C26.9169 35.3404 23.8459 34.4669 21.1855 32.2765C18.9925 30.4696 17.7039 28.1464 17.2081 25.3799C17.1362 24.974 17.0681 24.5662 17 24.1584C17 23.7226 17 23.2849 17 22.8491C17.0322 22.7649 17.0833 22.6844 17.0927 22.5984C17.2138 21.3395 17.4825 20.1181 18.0123 18.9584C19.5979 15.4904 22.2413 13.2794 25.9802 12.3517C26.3965 12.2488 26.8052 12.1178 27.2177 12C28.0692 12 28.9207 12 29.7721 12ZM39.5282 23.5636C39.6398 17.7126 34.7466 12.7669 28.7333 12.7557C22.686 12.7463 17.8231 17.4451 17.7928 23.4345C17.7607 29.5699 22.7049 34.2237 28.6312 34.2686C34.618 34.3135 39.6001 29.3791 39.53 23.5636H39.5282Z" fill="white"/>
<path d="M110 18.0791C109.937 18.197 109.854 18.3092 109.818 18.4364C109.581 19.2576 108.823 19.858 107.994 19.8674C107.133 19.8786 106.315 19.2351 106.068 18.3541C105.856 17.6003 106.24 16.7417 106.993 16.2853C108.079 15.6269 109.472 16.1843 109.82 17.4095C109.85 17.5161 109.939 17.6078 110.001 17.705V18.0791H110Z" fill="#EC7100"/>
<path d="M82.5116 24.1435C82.6271 23.9808 82.7576 23.8255 82.8541 23.6535C84.0027 21.5884 85.751 20.4044 88.1465 20.3782C90.4455 20.352 92.226 21.3883 93.4673 23.3112C93.5562 23.4496 93.6433 23.588 93.7322 23.7283C93.7795 23.7189 93.8268 23.7096 93.876 23.7002C93.876 23.545 93.876 23.3916 93.876 23.2363C93.8703 22.5517 93.8703 21.8652 93.8571 21.1806C93.8514 20.9318 93.9214 20.814 94.2014 20.814C97.6073 20.8215 101.011 20.8196 104.417 20.8234C104.461 20.8234 104.506 20.8458 104.616 20.8757C104.616 21.6052 104.633 22.346 104.603 23.0867C104.595 23.2438 104.43 23.4103 104.309 23.5468C102.735 25.3107 101.155 27.069 99.5771 28.8292C99.5165 28.8965 99.4636 28.9714 99.35 29.1191C99.5601 29.1472 99.702 29.179 99.842 29.1809C101.781 29.1977 103.721 29.1996 105.659 29.2332C106.071 29.2407 106.154 29.0967 106.152 28.7245C106.139 26.2628 106.154 23.7994 106.137 21.3377C106.133 20.9318 106.236 20.7916 106.661 20.8084C107.511 20.8421 108.364 20.8234 109.214 20.8159C109.449 20.8159 109.6 20.8458 109.6 21.1395C109.592 24.8787 109.594 28.6197 109.59 32.3589C109.59 32.4169 109.564 32.4767 109.539 32.5796C108.576 32.5796 107.619 32.5796 106.661 32.5796C102.658 32.5759 98.6537 32.5628 94.6499 32.5777C94.192 32.5777 94.1163 32.4375 94.0652 32.0072C93.9233 30.812 94.3471 29.9309 95.191 29.0742C96.6177 27.6246 97.9177 26.0533 99.2687 24.5307C99.3273 24.4634 99.3727 24.3848 99.473 24.2389H93.982C94.2033 25.1723 94.4853 26.0702 94.2677 27.0653H85.628C85.6091 28.0679 86.4757 29.0855 87.4994 29.2987C88.6706 29.5437 89.6848 29.2987 90.472 28.3504C90.5306 28.2793 90.6593 28.197 90.7331 28.2138C91.7416 28.4383 92.7483 28.6777 93.8117 28.9283C93.4484 29.8393 92.9015 30.5295 92.209 31.1038C89.1172 33.6645 84.663 32.7554 82.8238 29.2014C82.7482 29.0574 82.6119 28.9433 82.5041 28.8161C82.3943 28.1016 82.1919 27.3833 82.1994 26.6687C82.2089 25.827 82.4 24.9871 82.5135 24.1473L82.5116 24.1435ZM90.7066 25.1387C90.4985 23.9902 89.2534 23.2289 87.8816 23.3261C86.9582 23.3916 85.7832 24.3194 85.8305 25.1387H90.7066Z" fill="#EC7100"/>
<path d="M56.6224 27.1047C56.6319 28.2981 57.7388 29.3362 59.0633 29.3849C60.0056 29.4185 60.8344 29.1529 61.4493 28.3897C61.5213 28.3018 61.6859 28.212 61.7843 28.2345C62.7814 28.4496 63.7729 28.6871 64.7682 28.9191C64.2214 30.6475 61.9886 32.6171 59.0955 32.5479C56.1967 32.4787 53.8239 30.4155 53.2771 27.5293C52.7492 24.7516 54.3291 21.8579 56.9819 20.8066C58.6679 20.1388 60.3443 20.2249 61.9678 21.0255C63.5667 21.8148 64.5828 23.1148 65.1958 24.7927C65.6727 22.5294 66.789 20.743 68.9802 19.8732C71.1997 18.9903 73.2394 19.4617 75.0711 21.1396V19.819H78.1875V32.1813H75.1146V30.958C74.95 31.0552 74.8535 31.0926 74.7816 31.1562C72.4466 33.2774 68.842 32.9426 66.7285 30.4136C66.0019 29.5438 65.5099 28.5656 65.3264 27.447C65.2867 27.2038 65.2223 27.056 64.9215 27.056C62.1949 27.0673 59.4682 27.0654 56.7416 27.0673C56.7114 27.0673 56.683 27.0841 56.6205 27.1028L56.6224 27.1047ZM75.2433 25.8814C75.2338 25.7448 75.23 25.5241 75.1997 25.309C75.0086 23.9622 74.301 22.9671 73.0048 22.5069C71.6822 22.0393 70.4201 22.2207 69.3681 23.2271C68.4466 24.11 68.2044 25.2267 68.2952 26.4425C68.4712 28.7825 70.7172 30.2958 72.9159 29.5607C74.3615 29.0762 75.2527 27.6976 75.2433 25.8814ZM61.7124 25.1294C61.5572 24.1044 60.4105 23.3038 59.1655 23.3187C57.9942 23.3318 56.9252 24.1399 56.7965 25.1294H61.7124Z" fill="white"/>
<path d="M43.1914 32.5289V15.769C43.2311 15.7409 43.2557 15.7073 43.2803 15.7073C45.3712 15.7746 47.4715 15.7409 49.5491 15.9411C51.5567 16.1338 53.0269 17.7723 53.2048 19.7663C53.2615 20.3967 53.2502 21.0495 53.1461 21.6724C52.8812 23.2548 51.8689 24.2631 50.4176 24.8841C50.3041 24.9327 50.1943 24.9888 50.0202 25.0693C51.358 27.5552 52.6806 30.0168 54.0449 32.5532C52.8831 32.5532 51.8159 32.5663 50.7506 32.5364C50.6219 32.5327 50.4611 32.3306 50.3816 32.1847C49.2274 30.0598 48.0846 27.9293 46.9398 25.7988C46.9171 25.7576 46.9076 25.7034 46.8755 25.6753C46.7544 25.578 46.6257 25.4883 46.5008 25.3966C46.4516 25.5275 46.3589 25.6585 46.357 25.7894C46.3456 26.8182 46.3494 27.8451 46.3494 28.8739C46.3494 29.9326 46.3494 30.9932 46.3494 32.0519C46.3494 32.2034 46.3362 32.355 46.3286 32.5289H43.1895H43.1914ZM46.3513 20.5239C46.3513 21.0065 46.3343 21.4909 46.3646 21.9717C46.3721 22.0895 46.5387 22.299 46.6276 22.2971C47.3977 22.2766 48.1792 22.2859 48.9304 22.1494C49.8405 21.9848 50.2208 21.3843 50.1735 20.4453C50.1319 19.6092 49.5604 18.9508 48.7241 18.8572C48.0675 18.7843 47.4034 18.7918 46.7449 18.7506C46.4213 18.73 46.3381 18.8778 46.3475 19.1696C46.3646 19.6204 46.3513 20.0731 46.3513 20.5258V20.5239Z" fill="white"/>
<path d="M82.5133 24.1436C82.4017 24.9834 82.2087 25.8233 82.1992 26.6651C82.1916 27.3796 82.3941 28.096 82.5038 28.8124C82.5038 30.0395 82.5038 31.2665 82.5038 32.5235H79.4102V15.3091H82.5133V24.1417V24.1436Z" fill="white"/>
<path d="M34.511 18.2122C34.4789 18.3039 34.4316 18.4666 34.3653 18.6218C32.7305 22.3797 31.0938 26.1376 29.4514 29.8918C29.3662 30.0863 29.2641 30.3014 29.1051 30.4342C28.7834 30.6998 28.3615 30.5128 28.1969 30.0433C27.7995 28.9135 27.3965 27.7837 27.0294 26.6427C26.8875 26.2031 26.6869 25.945 26.1893 25.8477C24.9859 25.612 23.7995 25.2996 22.6017 25.034C22.2952 24.9667 22.0038 24.8339 22.0379 24.5215C22.0644 24.2914 22.2555 23.9977 22.4617 23.8818C26.1155 21.8298 29.7825 19.8003 33.4495 17.767C34.0266 17.4472 34.5016 17.6174 34.511 18.2141V18.2122Z" fill="#EC7100"/>
</g>
<defs>
<clipPath id="clip0_1_478">
<rect width="93" height="23" fill="white" transform="translate(17 12)"/>
</clipPath>
</defs>
</svg>
